<?xml version="1.0"?><svg width="1379.9589" height="955.68878" xmlns="http://www.w3.org/2000/svg">
 <title>hexna net</title>

 <g>
  <title>Layer 1</title>
  <g id="layer1">
   <path fill="none" stroke="#000000" stroke-width="3.543307" stroke-linecap="round" stroke-miterlimit="4" stroke-dashoffset="0" id="path5166" d="m193.359985,225.582397l-64.415649,-0.239929l-32,-55.905533l32.415649,-55.665581l64.415649,0.239952l32,55.905518l-32.415649,55.665573z"/>
   <path fill="none" stroke="#000000" stroke-width="3.543307" stroke-linecap="round" stroke-miterlimit="4" stroke-dashoffset="0" id="path5549" d="m289.359985,281.582397l-64.415649,-0.239929l-32,-55.905533l32.415649,-55.665573l64.415649,0.239944l32,55.905518l-32.415649,55.665573z"/>
   <path fill="none" stroke="#000000" stroke-width="3.543307" stroke-linecap="round" stroke-miterlimit="4" stroke-dashoffset="0" id="path5551" d="m289.77002,169.822296l-64.415649,-0.239929l-32,-55.905533l32.415649,-55.665585l64.415649,0.239952l32,55.905521l-32.415649,55.665573z"/>
   <path fill="none" stroke="#000000" stroke-width="3.543307" stroke-linecap="round" stroke-miterlimit="4" stroke-dashoffset="0" id="path5553" d="m385.77002,225.822296l-64.415649,-0.239929l-32,-55.905533l32.415649,-55.665581l64.415649,0.239952l32,55.905518l-32.415649,55.665573z"/>
   <path fill="none" stroke="#000000" stroke-width="3.543307" stroke-linecap="round" stroke-miterlimit="4" stroke-dashoffset="0" id="path5555" d="m289.77002,393.916992l-64.415649,-0.239929l-32,-55.905518l32.415649,-55.665588l64.415649,0.239929l32,55.905518l-32.415649,55.665588z"/>
   <path fill="none" stroke="#000000" stroke-width="3.543307" stroke-linecap="round" stroke-miterlimit="4" stroke-dashoffset="0" id="path5557" d="m385.77002,449.916992l-64.415649,-0.239929l-32,-55.905518l32.415649,-55.665588l64.415649,0.239929l32,55.905518l-32.415649,55.665588z"/>
   <path fill="none" stroke="#000000" stroke-width="3.543307" stroke-linecap="round" stroke-miterlimit="4" stroke-dashoffset="0" id="path5559" d="m386.189941,338.156982l-64.415649,-0.239929l-32,-55.905518l32.415649,-55.665588l64.415649,0.239944l32,55.905502l-32.415649,55.665588z"/>
   <path fill="none" stroke="#000000" stroke-width="3.543307" stroke-linecap="round" stroke-miterlimit="4" stroke-dashoffset="0" id="path5561" d="m482.189941,394.156982l-64.415649,-0.239929l-32,-55.905518l32.415649,-55.665588l64.415649,0.239929l32,55.905518l-32.415649,55.665588z"/>
   <path fill="none" stroke="#000000" stroke-width="3.543307" stroke-linecap="round" stroke-miterlimit="4" stroke-dashoffset="0" id="path5563" d="m480.939941,281.247894l-64.415649,-0.239929l-32,-55.905533l32.415649,-55.665573l64.415649,0.239944l32,55.905518l-32.415649,55.665573z"/>
   <path fill="none" stroke="#000000" stroke-width="3.543307" stroke-linecap="round" stroke-miterlimit="4" stroke-dashoffset="0" id="path5565" d="m576.939941,337.247986l-64.415649,-0.239929l-32,-55.905518l32.415649,-55.665588l64.415649,0.23996l32,55.905518l-32.415649,55.665558z"/>
   <path fill="none" stroke="#000000" stroke-width="3.543307" stroke-linecap="round" stroke-miterlimit="4" stroke-dashoffset="0" id="path5567" d="m577.359985,225.4879l-64.415649,-0.239929l-32,-55.905533l32.415649,-55.665588l64.415649,0.239952l32,55.905525l-32.415649,55.665573z"/>
   <path fill="none" stroke="#000000" stroke-width="3.543307" stroke-linecap="round" stroke-miterlimit="4" stroke-dashoffset="0" id="path5569" d="m673.359985,281.487885l-64.415649,-0.239929l-32,-55.905518l32.415649,-55.665588l64.415649,0.23996l32,55.905518l-32.415649,55.665558z"/>
   <path fill="none" stroke="#000000" stroke-width="3.543307" stroke-linecap="round" stroke-miterlimit="4" stroke-dashoffset="0" id="path5571" d="m577.359985,449.582001l-64.415649,-0.239929l-32,-55.905548l32.415649,-55.665558l64.415649,0.23996l32,55.905518l-32.415649,55.665558z"/>
   <path fill="none" stroke="#000000" stroke-width="3.543307" stroke-linecap="round" stroke-miterlimit="4" stroke-dashoffset="0" id="path5573" d="m673.359985,505.582001l-64.415649,-0.239929l-32,-55.905548l32.415649,-55.665558l64.415649,0.23996l32,55.905518l-32.415649,55.665558z"/>
   <path fill="none" stroke="#000000" stroke-width="3.543307" stroke-linecap="round" stroke-miterlimit="4" stroke-dashoffset="0" id="path5575" d="m673.77002,393.821991l-64.415649,-0.239929l-32,-55.905548l32.415649,-55.665558l64.415649,0.23996l32,55.905518l-32.415649,55.665558z"/>
   <path fill="none" stroke="#000000" stroke-width="3.543307" stroke-linecap="round" stroke-miterlimit="4" stroke-dashoffset="0" id="path5577" d="m769.771973,449.821991l-64.415649,-0.239929l-32,-55.905548l32.415649,-55.665558l64.415649,0.23996l32,55.905518l-32.415649,55.665558z"/>
   <path fill="none" stroke="#000000" stroke-width="3.543307" stroke-linecap="round" stroke-miterlimit="4" stroke-dashoffset="0" id="path5579" d="m385.77002,561.916992l-64.415649,-0.239929l-32,-55.905518l32.415649,-55.665588l64.415649,0.239929l32,55.905518l-32.415649,55.665588z"/>
   <path fill="none" stroke="#000000" stroke-width="3.543307" stroke-linecap="round" stroke-miterlimit="4" stroke-dashoffset="0" id="path5581" d="m481.77002,617.916992l-64.415649,-0.239929l-32,-55.905518l32.415649,-55.665588l64.415649,0.239929l32,55.905518l-32.415649,55.665588z"/>
   <path fill="none" stroke="#000000" stroke-width="3.543307" stroke-linecap="round" stroke-miterlimit="4" stroke-dashoffset="0" id="path5583" d="m482.189941,506.156982l-64.415649,-0.239929l-32,-55.905518l32.415649,-55.665588l64.415649,0.239929l32,55.905518l-32.415649,55.665588z"/>
   <path fill="none" stroke="#000000" stroke-width="3.543307" stroke-linecap="round" stroke-miterlimit="4" stroke-dashoffset="0" id="path5585" d="m578.189941,562.156982l-64.415649,-0.239929l-32,-55.905518l32.415649,-55.665588l64.415649,0.239929l32,55.905518l-32.415649,55.665588z"/>
   <path fill="none" stroke="#000000" stroke-width="3.543307" stroke-linecap="round" stroke-miterlimit="4" stroke-dashoffset="0" id="path5587" d="m482.189941,730.250977l-64.415649,-0.239929l-32,-55.905518l32.415649,-55.665588l64.415649,0.239929l32,55.905518l-32.415649,55.665588z"/>
   <path fill="none" stroke="#000000" stroke-width="3.543307" stroke-linecap="round" stroke-miterlimit="4" stroke-dashoffset="0" id="path5589" d="m578.189941,786.250977l-64.415649,-0.239929l-32,-55.905518l32.415649,-55.665588l64.415649,0.239929l32,55.905518l-32.415649,55.665588z"/>
   <path fill="none" stroke="#000000" stroke-width="3.543307" stroke-linecap="round" stroke-miterlimit="4" stroke-dashoffset="0" id="path5591" d="m578.599976,674.490967l-64.415649,-0.239929l-32,-55.905518l32.415649,-55.665588l64.415649,0.239929l32,55.905518l-32.415649,55.665588z"/>
   <path fill="none" stroke="#000000" stroke-width="3.543307" stroke-linecap="round" stroke-miterlimit="4" stroke-dashoffset="0" id="path5593" d="m674.599976,730.490967l-64.415649,-0.239929l-32,-55.905518l32.415649,-55.665588l64.415649,0.239929l32,55.905518l-32.415649,55.665588z"/>
   <path fill="none" stroke="#000000" stroke-width="3.543307" stroke-linecap="round" stroke-miterlimit="4" stroke-dashoffset="0" id="path5595" d="m673.359985,617.582031l-64.415649,-0.239929l-32,-55.905518l32.415649,-55.665588l64.415649,0.239929l32,55.905518l-32.415649,55.665588z"/>
   <path fill="none" stroke="#000000" stroke-width="3.543307" stroke-linecap="round" stroke-miterlimit="4" stroke-dashoffset="0" id="path5597" d="m769.356018,673.582031l-64.415649,-0.239929l-32,-55.905518l32.415649,-55.665588l64.415649,0.239929l32,55.905518l-32.415649,55.665588z"/>
   <path fill="none" stroke="#000000" stroke-width="3.543307" stroke-linecap="round" stroke-miterlimit="4" stroke-dashoffset="0" id="path5599" d="m769.771973,561.822021l-64.415649,-0.23999l-32,-55.905518l32.415649,-55.665558l64.415649,0.23996l32,55.905518l-32.415649,55.665588z"/>
   <path fill="none" stroke="#000000" stroke-width="3.543307" stroke-linecap="round" stroke-miterlimit="4" stroke-dashoffset="0" id="path5601" d="m865.771973,617.822021l-64.415649,-0.239929l-32,-55.905518l32.415649,-55.665588l64.415649,0.239929l32,55.905518l-32.415649,55.665588z"/>
   <path fill="none" stroke="#000000" stroke-width="3.543307" stroke-linecap="round" stroke-miterlimit="4" stroke-dashoffset="0" id="path5603" d="m769.771973,785.916992l-64.415649,-0.239929l-32,-55.905518l32.415649,-55.665588l64.415649,0.239929l32,55.905518l-32.415649,55.665588z"/>
   <path fill="none" stroke="#000000" stroke-width="3.543307" stroke-linecap="round" stroke-miterlimit="4" stroke-dashoffset="0" id="path5605" d="m865.771973,841.916992l-64.415649,-0.239929l-32,-55.905518l32.415649,-55.665588l64.415649,0.239929l32,55.905518l-32.415649,55.665588z"/>
   <path fill="none" stroke="#000000" stroke-width="3.543307" stroke-linecap="round" stroke-miterlimit="4" stroke-dashoffset="0" id="path5607" d="m866.187012,730.156982l-64.415649,-0.239929l-32,-55.905518l32.415649,-55.665588l64.415649,0.239929l32,55.905518l-32.415649,55.665588z"/>
   <path fill="none" stroke="#000000" stroke-width="3.543307" stroke-linecap="round" stroke-miterlimit="4" stroke-dashoffset="0" id="path5609" d="m962.187012,786.156982l-64.415649,-0.239929l-32,-55.905518l32.415649,-55.665588l64.415649,0.239929l32,55.905518l-32.415649,55.665588z"/>
   <path fill="none" stroke="#000000" stroke-width="3.543307" stroke-linecap="round" stroke-miterlimit="4" stroke-dashoffset="0" id="path5611" d="m864.525024,505.10199l-64.415649,-0.239929l-32,-55.905518l32.415649,-55.665588l64.415649,0.239929l32,55.905518l-32.415649,55.665588z"/>
   <path fill="none" stroke="#000000" stroke-width="3.543307" stroke-linecap="round" stroke-miterlimit="4" stroke-dashoffset="0" id="path5613" d="m960.525024,561.10199l-64.415649,-0.239929l-32,-55.905518l32.415649,-55.665588l64.415649,0.239929l32,55.905518l-32.415649,55.665588z"/>
   <path fill="none" stroke="#000000" stroke-width="3.543307" stroke-linecap="round" stroke-miterlimit="4" stroke-dashoffset="0" id="path5615" d="m960.940002,449.34198l-64.415649,-0.239929l-32,-55.905518l32.415649,-55.665588l64.415649,0.239929l32,55.905518l-32.415649,55.665588z"/>
   <path fill="none" stroke="#000000" stroke-width="3.543307" stroke-linecap="round" stroke-miterlimit="4" stroke-dashoffset="0" id="path5617" d="m1056.939941,505.34198l-64.415588,-0.239929l-32,-55.905518l32.415649,-55.665588l64.41571,0.239929l32,55.905518l-32.415771,55.665588z"/>
   <path fill="none" stroke="#000000" stroke-width="3.543307" stroke-linecap="round" stroke-miterlimit="4" stroke-dashoffset="0" id="path5619" d="m960.940002,673.437012l-64.415649,-0.239929l-32,-55.905518l32.415649,-55.665588l64.415649,0.239929l32,55.905518l-32.415649,55.665588z"/>
   <path fill="none" stroke="#000000" stroke-width="3.543307" stroke-linecap="round" stroke-miterlimit="4" stroke-dashoffset="0" id="path5621" d="m1056.939941,729.437012l-64.415588,-0.239929l-32,-55.905518l32.415649,-55.665588l64.41571,0.239929l32,55.905518l-32.415771,55.665588z"/>
   <path fill="none" stroke="#000000" stroke-width="3.543307" stroke-linecap="round" stroke-miterlimit="4" stroke-dashoffset="0" id="path5623" d="m1057.355957,617.677002l-64.415588,-0.239929l-32,-55.905518l32.415649,-55.665588l64.41571,0.239929l32,55.905518l-32.415771,55.665588z"/>
   <path fill="none" stroke="#000000" stroke-width="3.543307" stroke-linecap="round" stroke-miterlimit="4" stroke-dashoffset="0" id="path5625" d="m1153.355957,673.677002l-64.415527,-0.239929l-32,-55.905518l32.415527,-55.665588l64.415771,0.239929l32,55.905518l-32.415771,55.665588z"/>
   <path fill="none" stroke="#000000" stroke-width="3.543307" stroke-linecap="round" stroke-miterlimit="4" stroke-dashoffset="0" id="path5635" d="m1153.355957,561.677002l-64.415527,-0.239929l-32,-55.905518l32.415527,-55.665588l64.415771,0.239929l32,55.905518l-32.415771,55.665588z"/>
   <path fill="none" stroke="#000000" stroke-width="3.543307" stroke-linecap="round" stroke-miterlimit="4" stroke-dashoffset="0" id="path5637" d="m1249.355957,617.677002l-64.415649,-0.239929l-32,-55.905518l32.415649,-55.665588l64.415649,0.239929l32,55.905518l-32.415649,55.665588z"/>
   <path fill="none" stroke="#000000" stroke-width="3.543307" stroke-linecap="round" stroke-miterlimit="4" stroke-dashoffset="0" id="path5639" d="m1249.771973,505.916992l-64.415649,-0.239929l-32,-55.905518l32.415649,-55.665588l64.415649,0.239929l32,55.905518l-32.415649,55.665588z"/>
   <path fill="none" stroke="#000000" stroke-width="3.543307" stroke-linecap="round" stroke-miterlimit="4" stroke-dashoffset="0" id="path5641" d="m1345.771973,561.916992l-64.415649,-0.239929l-32,-55.905518l32.415649,-55.665588l64.415649,0.239929l32,55.905518l-32.415649,55.665588z"/>
   <path fill="none" stroke="#000000" stroke-width="3.543307" stroke-linecap="round" stroke-miterlimit="4" stroke-dashoffset="0" id="path5643" d="m769.356018,337.677002l-64.415649,-0.239929l-32,-55.905548l32.415649,-55.665573l64.415649,0.239944l32,55.905518l-32.415649,55.665588z"/>
   <path fill="none" stroke="#000000" stroke-width="3.543307" stroke-linecap="round" stroke-miterlimit="4" stroke-dashoffset="0" id="path5645" d="m865.356018,393.677002l-64.415649,-0.239929l-32,-55.905518l32.415649,-55.665588l64.415649,0.239929l32,55.905518l-32.415649,55.665588z"/>
   <path fill="none" stroke="#000000" stroke-width="3.543307" stroke-linecap="round" stroke-miterlimit="4" stroke-dashoffset="0" id="path5647" d="m865.771973,281.916809l-64.415649,-0.239929l-32,-55.905548l32.415649,-55.665588l64.415649,0.23996l32,55.905518l-32.415649,55.665588z"/>
   <path fill="none" stroke="#000000" stroke-width="3.543307" stroke-linecap="round" stroke-miterlimit="4" stroke-dashoffset="0" id="path5649" d="m961.771973,337.916992l-64.415649,-0.239929l-32,-55.905518l32.415649,-55.665588l64.415649,0.239944l32,55.905502l-32.415649,55.665588z"/>
   <path fill="none" stroke="#000000" stroke-width="3.543307" stroke-linecap="round" stroke-miterlimit="4" stroke-dashoffset="0" id="path5653" d="m1059.958984,283.354004l-64.415649,-0.239929l-32,-55.905548l32.415649,-55.665573l64.415649,0.239944l32,55.905518l-32.415649,55.665588z"/>
   <path fill="none" stroke="#000000" stroke-width="3.543307" stroke-linecap="round" stroke-miterlimit="4" stroke-dashoffset="0" id="path5659" d="m672.939941,169.342392l-64.415649,-0.239929l-32,-55.905533l32.415649,-55.665577l64.415649,0.239952l32,55.905514l-32.415649,55.665573z"/>
   <path fill="none" stroke="#000000" stroke-width="3.543307" stroke-linecap="round" stroke-miterlimit="4" stroke-dashoffset="0" id="path5661" d="m768.940002,225.342392l-64.415649,-0.239929l-32,-55.905533l32.415649,-55.665581l64.415649,0.239952l32,55.905518l-32.415649,55.665573z"/>
   <path fill="none" stroke="#000000" stroke-width="3.543307" stroke-linecap="round" stroke-miterlimit="4" stroke-dashoffset="0" id="path5663" d="m769.356018,113.582397l-64.415649,-0.239929l-32,-55.905533l32.415649,-55.665581l64.415649,0.239952l32,55.905518l-32.415649,55.665573z"/>
   <path fill="none" stroke="#000000" stroke-width="3.543307" stroke-linecap="round" stroke-miterlimit="4" stroke-dashoffset="0" id="path5665" d="m865.356018,169.582397l-64.415649,-0.239929l-32,-55.905533l32.415649,-55.665585l64.415649,0.239952l32,55.905521l-32.415649,55.665573z"/>
   <path fill="none" stroke="#000000" stroke-width="3.543307" stroke-linecap="round" stroke-miterlimit="4" stroke-dashoffset="0" id="path5667" d="m193.77002,673.822021l-64.415649,-0.239929l-32,-55.905518l32.415649,-55.665588l64.415649,0.239929l32,55.905518l-32.415649,55.665588z"/>
   <path fill="none" stroke="#000000" stroke-width="3.543307" stroke-linecap="round" stroke-miterlimit="4" stroke-dashoffset="0" id="path5669" d="m289.77002,729.822021l-64.415649,-0.239929l-32,-55.905518l32.415649,-55.665588l64.415649,0.239929l32,55.905518l-32.415649,55.665588z"/>
   <path fill="none" stroke="#000000" stroke-width="3.543307" stroke-linecap="round" stroke-miterlimit="4" stroke-dashoffset="0" id="path5671" d="m290.189941,618.062012l-64.415649,-0.239929l-32,-55.905518l32.415649,-55.665588l64.415649,0.239929l32,55.905518l-32.415649,55.665588z"/>
   <path fill="none" stroke="#000000" stroke-width="3.543307" stroke-linecap="round" stroke-miterlimit="4" stroke-dashoffset="0" id="path5673" d="m386.189941,674.062012l-64.415649,-0.239929l-32,-55.905518l32.415649,-55.665588l64.415649,0.239929l32,55.905518l-32.415649,55.665588z"/>
   <path fill="none" stroke="#000000" stroke-width="3.543307" stroke-linecap="round" stroke-miterlimit="4" stroke-dashoffset="0" id="path5675" d="m98.189941,506.251007l-64.415649,-0.239929l-32,-55.905548l32.415649,-55.665558l64.415649,0.23996l32,55.905518l-32.415649,55.665558z"/>
   <path fill="none" stroke="#000000" stroke-width="3.543307" stroke-linecap="round" stroke-miterlimit="4" stroke-dashoffset="0" id="path5677" d="m194.189941,562.250977l-64.415649,-0.239868l-32,-55.905579l32.415649,-55.665558l64.415649,0.23996l32,55.905518l-32.415649,55.665527z"/>
   <path fill="none" stroke="#000000" stroke-width="3.543307" stroke-linecap="round" stroke-miterlimit="4" stroke-dashoffset="0" id="path5679" d="m194.599976,450.490997l-64.415649,-0.239929l-32,-55.905548l32.415649,-55.665558l64.415649,0.23996l32,55.905518l-32.415649,55.665558z"/>
   <path fill="none" stroke="#000000" stroke-width="3.543307" stroke-linecap="round" stroke-miterlimit="4" stroke-dashoffset="0" id="path5681" d="m290.599976,506.490997l-64.415649,-0.239929l-32,-55.905548l32.415649,-55.665558l64.415649,0.23996l32,55.905518l-32.415649,55.665558z"/>
   <path fill="none" stroke="#000000" stroke-width="3.543307" stroke-linecap="round" stroke-miterlimit="4" stroke-dashoffset="0" id="path5683" d="m290.189941,842.156982l-64.415649,-0.239929l-32,-55.905518l32.415649,-55.665588l64.415649,0.239929l32,55.905518l-32.415649,55.665588z"/>
   <path fill="none" stroke="#000000" stroke-width="3.543307" stroke-linecap="round" stroke-miterlimit="4" stroke-dashoffset="0" id="path5685" d="m386.189941,898.156982l-64.415649,-0.239929l-32,-55.905518l32.415649,-55.665588l64.415649,0.239929l32,55.905518l-32.415649,55.665588z"/>
   <path fill="none" stroke="#000000" stroke-width="3.543307" stroke-linecap="round" stroke-miterlimit="4" stroke-dashoffset="0" id="path5687" d="m386.599976,786.396973l-64.415649,-0.239929l-32,-55.905518l32.415649,-55.665588l64.415649,0.239929l32,55.905518l-32.415649,55.665588z"/>
   <path fill="none" stroke="#000000" stroke-width="3.543307" stroke-linecap="round" stroke-miterlimit="4" stroke-dashoffset="0" id="path5689" d="m482.599976,842.396973l-64.415649,-0.239929l-32,-55.905518l32.415649,-55.665588l64.415649,0.239929l32,55.905518l-32.415649,55.665588z"/>
   <path fill="none" stroke="#000000" stroke-width="3.543307" stroke-linecap="round" stroke-miterlimit="4" stroke-dashoffset="0" id="path5691" d="m961.771973,897.916992l-64.415649,-0.239929l-32,-55.905518l32.415649,-55.665588l64.415649,0.239929l32,55.905518l-32.415649,55.665588z"/>
   <path fill="none" stroke="#000000" stroke-width="3.543307" stroke-linecap="round" stroke-miterlimit="4" stroke-dashoffset="0" id="path5693" d="m1057.771973,953.916992l-64.415649,-0.239929l-32,-55.905518l32.415649,-55.665588l64.415649,0.239929l32,55.905518l-32.415649,55.665588z"/>
   <path fill="none" stroke="#000000" stroke-width="3.543307" stroke-linecap="round" stroke-miterlimit="4" stroke-dashoffset="0" id="path5695" d="m1058.187012,842.156982l-64.415649,-0.239929l-32,-55.905518l32.415649,-55.665588l64.415649,0.239929l32,55.905518l-32.415649,55.665588z"/>
   <path fill="none" stroke="#000000" stroke-width="3.543307" stroke-linecap="round" stroke-miterlimit="4" stroke-dashoffset="0" id="path5697" d="m1154.187012,898.156982l-64.415649,-0.239929l-32,-55.905518l32.415649,-55.665588l64.415649,0.239929l32,55.905518l-32.415649,55.665588z"/>
   <path fill="none" stroke="#000000" stroke-width="3.543307" stroke-linecap="round" stroke-miterlimit="4" stroke-dashoffset="0" id="path5699" d="m577.77002,897.822021l-64.415649,-0.239929l-32,-55.905518l32.415649,-55.665588l64.415649,0.239929l32,55.905518l-32.415649,55.665588z"/>
   <path fill="none" stroke="#000000" stroke-width="3.543307" stroke-linecap="round" stroke-miterlimit="4" stroke-dashoffset="0" id="path5701" d="m673.77002,953.822021l-64.415649,-0.239929l-32,-55.905518l32.415649,-55.665588l64.415649,0.239929l32,55.905518l-32.415649,55.665588z"/>
   <path fill="none" stroke="#000000" stroke-width="3.543307" stroke-linecap="round" stroke-miterlimit="4" stroke-dashoffset="0" id="path5703" d="m674.189941,842.062012l-64.415649,-0.239929l-32,-55.905518l32.415649,-55.665588l64.415649,0.239929l32,55.905518l-32.415649,55.665588z"/>
   <path fill="none" stroke="#000000" stroke-width="3.543307" stroke-linecap="round" stroke-miterlimit="4" stroke-dashoffset="0" id="path5705" d="m770.187012,898.062012l-64.415649,-0.239929l-32,-55.905518l32.415649,-55.665588l64.415649,0.239929l32,55.905518l-32.415649,55.665588z"/>
  </g>
 </g>
</svg>